<?xml version="1.0" standalone="no"?><svg xmlns="http://www.w3.org/2000/svg" viewBox="0 0 1440 320"><path fill="#0099ff" fill-opacity="1" d="M0,224L26.7,208C53.3,192,107,160,160,144C213.3,128,267,128,320,112C373.3,96,427,64,480,53.3C533.3,43,587,53,640,85.3C693.3,117,747,171,800,186.7C853.3,203,907,181,960,192C1013.3,203,1067,245,1120,266.7C1173.3,288,1227,288,1280,272C1333.3,256,1387,224,1413,208L1440,192L1440,0L1413.3,0C1386.7,0,1333,0,1280,0C1226.7,0,1173,0,1120,0C1066.7,0,1013,0,960,0C906.7,0,853,0,800,0C746.7,0,693,0,640,0C586.7,0,533,0,480,0C426.7,0,373,0,320,0C266.7,0,213,0,160,0C106.7,0,53,0,27,0L0,0Z"></path></svg>